<svg width="16" height="16" viewBox="0 0 16 16" fill="none" xmlns="http://www.w3.org/2000/svg">
<path d="M4.66634 7.99935C4.66634 7.07713 3.9219 6.33268 2.99967 6.33268C2.07745 6.33268 1.33301 7.07713 1.33301 7.99935C1.33301 8.92157 2.07745 9.66602 2.99967 9.66602C3.9219 9.66602 4.66634 8.92157 4.66634 7.99935ZM6.33301 7.99935C6.33301 8.92157 7.07745 9.66602 7.99967 9.66602C8.9219 9.66602 9.66634 8.92157 9.66634 7.99935C9.66634 7.07713 8.9219 6.33268 7.99967 6.33268C7.07745 6.33268 6.33301 7.07713 6.33301 7.99935ZM11.333 7.99935C11.333 8.92157 12.0775 9.66602 12.9997 9.66602C13.9219 9.66602 14.6663 8.92157 14.6663 7.99935C14.6663 7.07713 13.9219 6.33268 12.9997 6.33268C12.0775 6.33268 11.333 7.07713 11.333 7.99935Z" fill="#525252"/>
</svg>
