<svg width="16" height="16" viewBox="0 0 16 16" fill="none" xmlns="http://www.w3.org/2000/svg">
<path d="M13.2632 4.1528C13.2632 4.10629 13.2448 4.06175 13.2118 4.0287C13.1435 3.96017 13.0324 3.96017 12.9639 4.0287L10.0459 6.94665C9.77203 7.22053 9.3278 7.22053 9.05367 6.94665C8.77979 6.67252 8.77979 6.22828 9.05367 5.95441L11.9716 3.03647C12.0044 3.00367 12.023 2.95912 12.023 2.91237C12.023 2.81569 11.9444 2.73713 11.8475 2.73713H10.6323C10.2448 2.73713 9.93059 2.42287 9.93059 2.03543C9.93059 1.648 10.2449 1.33398 10.6323 1.33398H13.9646C14.3523 1.33398 14.6663 1.648 14.6663 2.03568V5.36804C14.6663 5.75548 14.3523 6.06973 13.9649 6.06973C13.5775 6.06973 13.2632 5.75547 13.2632 5.36804L13.2632 4.1528ZM2.73616 11.8483C2.73616 11.8948 2.75452 11.9394 2.78756 11.9724C2.85585 12.041 2.96697 12.041 3.0355 11.9724L5.95344 9.05449C6.22732 8.78061 6.67155 8.78061 6.94568 9.05449C7.21956 9.32862 7.21956 9.77286 6.94568 10.0467L4.02773 12.9647C3.99494 12.9975 3.97634 13.042 3.97634 13.0888C3.97634 13.1854 4.0549 13.264 4.15183 13.264H5.36706C5.75451 13.264 6.06876 13.5783 6.06876 13.9657C6.06876 14.3531 5.75449 14.6672 5.36706 14.6672H2.03471C1.64701 14.6672 1.33301 14.3531 1.33301 13.9655V10.6331C1.33301 10.2457 1.64703 9.9314 2.03445 9.9314C2.42188 9.9314 2.73615 10.2457 2.73615 10.6331L2.73616 11.8483Z" fill="#525252"/>
</svg>
